<mxfile host="app.diagrams.net" agent="Mozilla/5.0 (Windows NT 10.0; Win64; x64) AppleWebKit/537.36 (KHTML, like Gecko) Chrome/129.0.0.0 Safari/537.36" version="24.7.17">
  <diagram name="Page-1" id="X0JvL7DTKHgV-wE9UcLp">
    <mxGraphModel dx="892" dy="503" grid="1" gridSize="10" guides="1" tooltips="1" connect="1" arrows="1" fold="1" page="1" pageScale="1" pageWidth="827" pageHeight="1169" math="0" shadow="0">
      <root>
        <mxCell id="0" />
        <mxCell id="1" parent="0" />
        <mxCell id="qHCFgXvhmrzMCmFW_h6j-21" value="Datastore&lt;br style=&quot;font-size: 10px;&quot;&gt;- Postgres with 1 or more read replicas&lt;div style=&quot;text-align: left;&quot;&gt;- Hot standby for failover of instance&lt;/div&gt;&lt;div style=&quot;text-align: left;&quot;&gt;- Multi-AZ&lt;/div&gt;" style="text;html=1;align=center;verticalAlign=middle;whiteSpace=wrap;rounded=0;fontSize=10;" vertex="1" parent="1">
          <mxGeometry x="120" y="930" width="190" height="30" as="geometry" />
        </mxCell>
        <mxCell id="qHCFgXvhmrzMCmFW_h6j-23" value="Amazon RDS" style="sketch=0;outlineConnect=0;fontColor=#232F3E;gradientColor=none;strokeColor=#ffffff;fillColor=#232F3E;dashed=0;verticalLabelPosition=middle;verticalAlign=bottom;align=center;html=1;whiteSpace=wrap;fontSize=10;fontStyle=1;spacing=3;shape=mxgraph.aws4.productIcon;prIcon=mxgraph.aws4.rds;" vertex="1" parent="1">
          <mxGeometry x="40" y="920" width="80" height="100" as="geometry" />
        </mxCell>
        <mxCell id="qHCFgXvhmrzMCmFW_h6j-24" value="Amazon ElastiCache" style="sketch=0;outlineConnect=0;fontColor=#232F3E;gradientColor=none;strokeColor=#ffffff;fillColor=#232F3E;dashed=0;verticalLabelPosition=middle;verticalAlign=bottom;align=center;html=1;whiteSpace=wrap;fontSize=10;fontStyle=1;spacing=3;shape=mxgraph.aws4.productIcon;prIcon=mxgraph.aws4.elasticache;" vertex="1" parent="1">
          <mxGeometry x="40" y="1040" width="80" height="110" as="geometry" />
        </mxCell>
        <mxCell id="qHCFgXvhmrzMCmFW_h6j-25" value="Cache&lt;br style=&quot;font-size: 10px;&quot;&gt;- Redis in clustered mode to allow scaling&lt;div style=&quot;text-align: left;&quot;&gt;- Multi-AZ&amp;nbsp;&lt;/div&gt;" style="text;html=1;align=center;verticalAlign=middle;whiteSpace=wrap;rounded=0;fontSize=10;" vertex="1" parent="1">
          <mxGeometry x="120" y="1040" width="190" height="30" as="geometry" />
        </mxCell>
        <mxCell id="qHCFgXvhmrzMCmFW_h6j-27" value="" style="shape=cylinder3;whiteSpace=wrap;html=1;boundedLbl=1;backgroundOutline=1;size=15;fillColor=none;" vertex="1" parent="1">
          <mxGeometry x="30" y="880" width="290" height="280" as="geometry" />
        </mxCell>
      </root>
    </mxGraphModel>
  </diagram>
</mxfile>
